<?xml version="1.0" encoding="utf-8"?>
<!-- Generator: Adobe Illustrator 16.0.4, SVG Export Plug-In . SVG Version: 6.00 Build 0)  -->
<!DOCTYPE svg PUBLIC "-//W3C//DTD SVG 1.1//EN" "http://www.w3.org/Graphics/SVG/1.1/DTD/svg11.dtd">
<svg version="1.1" id="Layer_1" xmlns="http://www.w3.org/2000/svg" xmlns:xlink="http://www.w3.org/1999/xlink" x="0px" y="0px"
	 width="400px" height="400px" viewBox="0 0 400 400" enable-background="new 0 0 400 400" xml:space="preserve">
<rect display="none" fill="#23241F" width="400" height="400"/>
<text transform="matrix(1 0 0 1 180.7769 61.1074)" fill="#F8F8F2" font-family="'MyriadPro-Regular'" font-size="36">h1</text>
<text transform="matrix(1 0 0 1 96.6841 130.1958)" fill="#F8F8F2" font-family="'MyriadPro-Regular'" font-size="24">h2</text>
<text transform="matrix(1 0 0 1 187.1841 130.1958)" fill="#F8F8F2" font-family="'MyriadPro-Regular'" font-size="24">h2</text>
<text transform="matrix(1 0 0 1 276.6836 130.1958)" fill="#F8F8F2" font-family="'MyriadPro-Regular'" font-size="24">h2</text>
<text transform="matrix(1 0 0 1 120.6553 193.7729)" fill="#F8F8F2" font-family="'MyriadPro-Regular'" font-size="21">h3</text>
<text transform="matrix(1 0 0 1 233.1602 193.7729)" fill="#F8F8F2" font-family="'MyriadPro-Regular'" font-size="21">h3</text>
<text transform="matrix(1 0 0 1 323.2861 193.7729)" fill="#F8F8F2" font-family="'MyriadPro-Regular'" font-size="21">h3</text>
<text transform="matrix(1 0 0 1 75.6553 193.7729)" fill="#F8F8F2" font-family="'MyriadPro-Regular'" font-size="21">h3</text>
<text transform="matrix(1 0 0 1 188.7866 193.7729)" fill="#F8F8F2" font-family="'MyriadPro-Regular'" font-size="21">h3</text>
<text transform="matrix(1 0 0 1 278.418 193.7729)" fill="#F8F8F2" font-family="'MyriadPro-Regular'" font-size="21">h3</text>
<text transform="matrix(1 0 0 1 77.2573 254.0879)" fill="#F8F8F2" font-family="'MyriadPro-Regular'" font-size="18">h4</text>
<text transform="matrix(1 0 0 1 122.2573 254.0879)" fill="#F8F8F2" font-family="'MyriadPro-Regular'" font-size="18">h4</text>
<text transform="matrix(1 0 0 1 211.8887 254.0879)" fill="#F8F8F2" font-family="'MyriadPro-Regular'" font-size="18">h4</text>
<text transform="matrix(1 0 0 1 256.8887 254.0879)" fill="#F8F8F2" font-family="'MyriadPro-Regular'" font-size="18">h4</text>
<text transform="matrix(1 0 0 1 325.0195 254.0879)" fill="#F8F8F2" font-family="'MyriadPro-Regular'" font-size="18">h4</text>
<text transform="matrix(1 0 0 1 56.8931 310.3066)" fill="#F8F8F2" font-family="'MyriadPro-Regular'" font-size="14">h5</text>
<text transform="matrix(1 0 0 1 101.8931 310.3066)" fill="#F8F8F2" font-family="'MyriadPro-Regular'" font-size="14">h5</text>
<text transform="matrix(1 0 0 1 192.0234 310.3066)" fill="#F8F8F2" font-family="'MyriadPro-Regular'" font-size="14">h5</text>
<text transform="matrix(1 0 0 1 236.5244 310.3066)" fill="#F8F8F2" font-family="'MyriadPro-Regular'" font-size="14">h5</text>
<text transform="matrix(1 0 0 1 326.5234 310.3066)" fill="#F8F8F2" font-family="'MyriadPro-Regular'" font-size="14">h5</text>
<text transform="matrix(1 0 0 1 34.3931 365.5254)" fill="#F8F8F2" font-family="'MyriadPro-Regular'" font-size="14">h6</text>
<text transform="matrix(1 0 0 1 79.3931 365.5254)" fill="#F8F8F2" font-family="'MyriadPro-Regular'" font-size="14">h6</text>
<text transform="matrix(1 0 0 1 236.5234 365.5254)" fill="#F8F8F2" font-family="'MyriadPro-Regular'" font-size="14">h6</text>
<text transform="matrix(1 0 0 1 192.0239 365.5254)" fill="#F8F8F2" font-family="'MyriadPro-Regular'" font-size="14">h6</text>
<text transform="matrix(1 0 0 1 282.3398 364.709)" fill="#F8F8F2" font-family="'MyriadPro-Regular'" font-size="14">h6</text>
<g>
	<g>
		
			<line fill="none" stroke="#E6DB74" stroke-width="3" stroke-linecap="round" stroke-linejoin="round" x1="200" y1="72" x2="282.764" y2="99.742"/>
		<g>
			<polygon fill="#E6DB74" points="279.825,103.963 289.5,102 282.963,94.603 			"/>
		</g>
	</g>
</g>
<g>
	<g>
		
			<line fill="none" stroke="#E6DB74" stroke-width="3" stroke-linecap="round" stroke-linejoin="round" x1="200" y1="72" x2="115.996" y2="99.77"/>
		<g>
			<polygon fill="#E6DB74" points="115.817,94.63 109.25,102 118.917,104.004 			"/>
		</g>
	</g>
</g>
<g>
	<g>
		
			<line fill="none" stroke="#E6DB74" stroke-width="3" stroke-linecap="round" stroke-linejoin="round" x1="199.5" y1="72" x2="199.5" y2="95"/>
		<g>
			<polygon fill="#E6DB74" points="195.063,93 200,101.549 204.937,93 			"/>
		</g>
	</g>
</g>
<g>
	<g>
		
			<line fill="none" stroke="#E6DB74" stroke-width="3" stroke-linecap="round" stroke-linejoin="round" x1="290" y1="140" x2="330.177" y2="169.794"/>
		<g>
			<polygon fill="#E6DB74" points="327.07,172.146 334.5,173 331.525,166.138 			"/>
		</g>
	</g>
</g>
<g>
	<g>
		
			<line fill="none" stroke="#E6DB74" stroke-width="3" stroke-linecap="round" stroke-linejoin="round" x1="290" y1="140" x2="248.856" y2="169.84"/>
		<g>
			<polygon fill="#E6DB74" points="247.547,166.17 244.5,173 251.938,172.225 			"/>
		</g>
	</g>
</g>
<g>
	<g>
		
			<line fill="none" stroke="#E6DB74" stroke-width="3" stroke-linecap="round" stroke-linejoin="round" x1="289.5" y1="140" x2="289.5" y2="168"/>
		<g>
			<polygon fill="#E6DB74" points="286.26,167 290,173.477 293.74,167 			"/>
		</g>
	</g>
</g>
<g>
	<g>
		
			<line fill="none" stroke="#E6DB74" stroke-width="3" stroke-linecap="round" stroke-linejoin="round" x1="109.369" y1="140" x2="128.64" y2="165.694"/>
		<g>
			<polygon fill="#E6DB74" points="124.992,167.062 131.869,170 130.975,162.575 			"/>
		</g>
	</g>
</g>
<g>
	<g>
		
			<line fill="none" stroke="#E6DB74" stroke-width="3" stroke-linecap="round" stroke-linejoin="round" x1="199.5" y1="140" x2="199.5" y2="165"/>
		<g>
			<polygon fill="#E6DB74" points="196.26,164 200,170.477 203.74,164 			"/>
		</g>
	</g>
</g>
<g>
	<g>
		
			<line fill="none" stroke="#E6DB74" stroke-width="3" stroke-linecap="round" stroke-linejoin="round" x1="109.369" y1="140" x2="90.099" y2="165.694"/>
		<g>
			<polygon fill="#E6DB74" points="87.763,162.575 86.869,170 93.747,167.062 			"/>
		</g>
	</g>
</g>
<g>
	<g>
		
			<line fill="none" stroke="#E6DB74" stroke-width="3" stroke-linecap="round" stroke-linejoin="round" x1="334.5" y1="200" x2="334.5" y2="228"/>
		<g>
			<polygon fill="#E6DB74" points="331.26,227 335,233.477 338.74,227 			"/>
		</g>
	</g>
</g>
<g>
	<g>
		
			<line fill="none" stroke="#E6DB74" stroke-width="3" stroke-linecap="round" stroke-linejoin="round" x1="244" y1="200" x2="224.532" y2="228.553"/>
		<g>
			<polygon fill="#E6DB74" points="222.059,225.542 221.5,233 228.238,229.756 			"/>
		</g>
	</g>
</g>
<g>
	<g>
		
			<line fill="none" stroke="#E6DB74" stroke-width="3" stroke-linecap="round" stroke-linejoin="round" x1="244" y1="200" x2="263.469" y2="228.553"/>
		<g>
			<polygon fill="#E6DB74" points="259.763,229.756 266.501,233 265.942,225.542 			"/>
		</g>
	</g>
</g>
<g>
	<g>
		
			<line fill="none" stroke="#E6DB74" stroke-width="3" stroke-linecap="round" stroke-linejoin="round" x1="131.5" y1="200" x2="131.5" y2="225"/>
		<g>
			<polygon fill="#E6DB74" points="128.26,224 132,230.477 135.74,224 			"/>
		</g>
	</g>
</g>
<g>
	<g>
		
			<line fill="none" stroke="#E6DB74" stroke-width="3" stroke-linecap="round" stroke-linejoin="round" x1="86.5" y1="200" x2="86.5" y2="225"/>
		<g>
			<polygon fill="#E6DB74" points="83.26,224 87,230.477 90.74,224 			"/>
		</g>
	</g>
</g>
<g>
	<g>
		
			<line fill="none" stroke="#E6DB74" stroke-width="3" stroke-linecap="round" stroke-linejoin="round" x1="333.5" y1="261" x2="333.5" y2="289"/>
		<g>
			<polygon fill="#E6DB74" points="330.26,288 334,294.477 337.74,288 			"/>
		</g>
	</g>
</g>
<g>
	<g>
		
			<line fill="none" stroke="#E6DB74" stroke-width="3" stroke-linecap="round" stroke-linejoin="round" x1="221.5" y1="260" x2="241.65" y2="288.601"/>
		<g>
			<polygon fill="#E6DB74" points="237.963,289.859 244.75,293 244.077,285.552 			"/>
		</g>
	</g>
</g>
<g>
	<g>
		
			<line fill="none" stroke="#E6DB74" stroke-width="3" stroke-linecap="round" stroke-linejoin="round" x1="221.5" y1="260" x2="202.485" y2="288.521"/>
		<g>
			<polygon fill="#E6DB74" points="199.981,285.537 199.5,293 206.204,289.686 			"/>
		</g>
	</g>
</g>
<g>
	<g>
		
			<line fill="none" stroke="#E6DB74" stroke-width="3" stroke-linecap="round" stroke-linejoin="round" x1="86.369" y1="260" x2="106.213" y2="285.737"/>
		<g>
			<polygon fill="#E6DB74" points="102.584,287.154 109.5,290 108.507,282.588 			"/>
		</g>
	</g>
</g>
<g>
	<g>
		
			<line fill="none" stroke="#E6DB74" stroke-width="3" stroke-linecap="round" stroke-linejoin="round" x1="86.369" y1="260" x2="67.67" y2="285.65"/>
		<g>
			<polygon fill="#E6DB74" points="65.293,282.563 64.5,290 71.337,286.97 			"/>
		</g>
	</g>
</g>
<g>
	<g>
		
			<line fill="none" stroke="#E6DB74" stroke-width="3" stroke-linecap="round" stroke-linejoin="round" x1="243.5" y1="320" x2="243.5" y2="345"/>
		<g>
			<polygon fill="#E6DB74" points="240.26,344 244,350.477 247.74,344 			"/>
		</g>
	</g>
</g>
<g>
	<g>
		
			<line fill="none" stroke="#E6DB74" stroke-width="3" stroke-linecap="round" stroke-linejoin="round" x1="244" y1="320" x2="285.007" y2="347.037"/>
		<g>
			<polygon fill="#E6DB74" points="282.034,349.558 289.5,350 286.151,343.312 			"/>
		</g>
	</g>
</g>
<g>
	<g>
		
			<line fill="none" stroke="#E6DB74" stroke-width="3" stroke-linecap="round" stroke-linejoin="round" x1="244" y1="320" x2="204.804" y2="346.95"/>
		<g>
			<polygon fill="#E6DB74" points="203.587,343.249 200.369,350 207.824,349.412 			"/>
		</g>
	</g>
</g>
<g>
	<g>
		
			<line fill="none" stroke="#E6DB74" stroke-width="3" stroke-linecap="round" stroke-linejoin="round" x1="64.369" y1="320" x2="83.64" y2="345.694"/>
		<g>
			<polygon fill="#E6DB74" points="79.992,347.062 86.869,350 85.975,342.575 			"/>
		</g>
	</g>
</g>
<g>
	<g>
		
			<line fill="none" stroke="#E6DB74" stroke-width="3" stroke-linecap="round" stroke-linejoin="round" x1="64.369" y1="320" x2="45.099" y2="345.694"/>
		<g>
			<polygon fill="#E6DB74" points="42.763,342.575 41.869,350 48.747,347.062 			"/>
		</g>
	</g>
</g>
<g display="none">
	
		<line display="inline" opacity="0.2" fill="none" stroke="#66D9EF" stroke-miterlimit="10" x1="244.5" y1="1" x2="244.5" y2="401"/>
	
		<line display="inline" opacity="0.2" fill="none" stroke="#66D9EF" stroke-miterlimit="10" x1="199.5" y1="401" x2="199.5" y2="1"/>
	
		<line display="inline" opacity="0.2" fill="none" stroke="#66D9EF" stroke-miterlimit="10" x1="199.5" y1="1" x2="199.5" y2="401"/>
	
		<line display="inline" opacity="0.2" fill="none" stroke="#66D9EF" stroke-miterlimit="10" x1="154.5" y1="401" x2="154.5" y2="1"/>
	
		<line display="inline" opacity="0.2" fill="none" stroke="#66D9EF" stroke-miterlimit="10" x1="334.5" y1="1" x2="334.5" y2="401"/>
	
		<line display="inline" opacity="0.2" fill="none" stroke="#66D9EF" stroke-miterlimit="10" x1="289.5" y1="401" x2="289.5" y2="1"/>
	
		<line display="inline" opacity="0.2" fill="none" stroke="#66D9EF" stroke-miterlimit="10" x1="289.5" y1="1" x2="289.5" y2="401"/>
	
		<line display="inline" opacity="0.2" fill="none" stroke="#66D9EF" stroke-miterlimit="10" x1="244.5" y1="401" x2="244.5" y2="1"/>
	
		<line display="inline" opacity="0.2" fill="none" stroke="#66D9EF" stroke-miterlimit="10" x1="379.5" y1="1" x2="379.5" y2="401"/>
	
		<line display="inline" opacity="0.2" fill="none" stroke="#66D9EF" stroke-miterlimit="10" x1="334.5" y1="401" x2="334.5" y2="1"/>
	
		<line display="inline" opacity="0.2" fill="none" stroke="#66D9EF" stroke-miterlimit="10" x1="154.5" y1="1" x2="154.5" y2="401"/>
	
		<line display="inline" opacity="0.2" fill="none" stroke="#66D9EF" stroke-miterlimit="10" x1="109.5" y1="401" x2="109.5" y2="1"/>
	
		<line display="inline" opacity="0.2" fill="none" stroke="#66D9EF" stroke-miterlimit="10" x1="109.5" y1="1" x2="109.5" y2="401"/>
	<line display="inline" opacity="0.2" fill="none" stroke="#66D9EF" stroke-miterlimit="10" x1="64.5" y1="401" x2="64.5" y2="1"/>
	<line display="inline" opacity="0.2" fill="none" stroke="#66D9EF" stroke-miterlimit="10" x1="19.5" y1="401" x2="19.5" y2="1"/>
	<line display="inline" opacity="0.2" fill="none" stroke="#66D9EF" stroke-miterlimit="10" x1="64.5" y1="1" x2="64.5" y2="401"/>
</g>
</svg>
