<?xml version="1.0" encoding="utf-8"?>
<!-- Generator: Adobe Illustrator 16.0.4, SVG Export Plug-In . SVG Version: 6.00 Build 0)  -->
<!DOCTYPE svg PUBLIC "-//W3C//DTD SVG 1.1//EN" "http://www.w3.org/Graphics/SVG/1.1/DTD/svg11.dtd">
<svg version="1.1" id="Layer_1" xmlns="http://www.w3.org/2000/svg" xmlns:xlink="http://www.w3.org/1999/xlink" x="0px" y="0px"
	 width="40px" height="40px" viewBox="0 0 40 40" enable-background="new 0 0 40 40" xml:space="preserve">
<path fill="#F92672" d="M20,2.568C10.373,2.568,2.568,10.373,2.568,20c0,9.627,7.804,17.432,17.432,17.432
	c9.627,0,17.432-7.805,17.432-17.432C37.432,10.373,29.627,2.568,20,2.568z M20,31.882c-1.451,0-2.627-1.177-2.627-2.627
	s1.176-2.628,2.627-2.628c1.45,0,2.627,1.178,2.627,2.628S21.45,31.882,20,31.882z M22,23h-4L17,7h6L22,23z"/>
</svg>
